<svg width="128" height="40" viewBox="0 0 128 40" fill="none" xmlns="http://www.w3.org/2000/svg">
<g clip-path="url(#clip0_155_3807)">
<path d="M15.0742 21.4994L12.1985 20.1955L12.2093 19.1705C12.2093 18.4787 11.6009 17.8884 10.3839 17.4067C9.54002 17.0734 8.61644 16.9105 7.60956 16.9105C6.60268 16.9105 5.6791 17.0771 4.83521 17.4067C3.61825 17.8992 3.00978 18.486 3.00978 19.1705V32.5859C3.00978 33.2777 3.61825 33.8681 4.83521 34.3498C5.6791 34.683 6.60268 34.846 7.60956 34.846C8.61644 34.846 9.54002 34.6794 10.3839 34.3498C11.6009 33.8572 12.2093 33.2705 12.2093 32.5859V28.9677H12.3615L15.2264 30.3259V32.5859C15.2264 34.4259 14.0855 35.8167 11.8037 36.762C10.5288 37.2944 9.13075 37.5624 7.61318 37.5624C6.09562 37.5624 4.69757 37.2944 3.42267 36.762C1.14089 35.813 0 34.4222 0 32.5823V19.1669C0 17.327 1.14089 15.9362 3.42267 14.9909C4.69757 14.4584 6.09562 14.1904 7.61318 14.1904C9.13075 14.1904 10.5288 14.4584 11.8037 14.9909C14.0855 15.9362 15.2264 17.327 15.2264 19.1669V21.4994H15.0742Z" fill="#81FE88"/>
<path d="M15.2227 30.3223C15.2227 30.3223 12.6259 29.1995 12.1985 27.9102L12.2093 29.4748L15.2227 30.3223Z" fill="#81FE88"/>
<path d="M12.155 22.1043L15.0308 23.4082L15.0199 24.4332C15.0199 25.125 15.6284 25.7153 16.8453 26.197C17.6892 26.5303 18.6128 26.6932 19.6197 26.6932C20.623 26.6932 21.5502 26.5266 22.3941 26.197C23.611 25.7045 24.2195 25.1177 24.2195 24.4332V11.0214C24.2195 10.3296 23.611 9.73924 22.3941 9.25753C21.5502 8.92431 20.6266 8.76133 19.6197 8.76133C18.6164 8.76133 17.6892 8.92793 16.8453 9.25753C15.6284 9.7501 15.0199 10.3368 15.0199 11.0214V14.6396H14.8678L12.0029 13.2814V11.0214C12.0029 9.18147 13.1438 7.79067 15.4256 6.84536C16.7005 6.31294 18.0985 6.04492 19.6161 6.04492C21.1336 6.04492 22.5317 6.31294 23.8066 6.84536C26.0884 7.79067 27.2293 9.18147 27.2293 11.0214V24.4368C27.2293 26.2767 26.0884 27.6675 23.8066 28.6128C22.5317 29.1452 21.1336 29.4133 19.6161 29.4133C18.0985 29.4133 16.7005 29.1452 15.4256 28.6128C13.1438 27.6675 12.0029 26.2767 12.0029 24.4368V22.1043H12.155Z" fill="#81FE88"/>
<path d="M12.0065 13.2815C12.0065 13.2815 14.6034 14.4043 15.0308 15.6937L15.0199 14.129L12.0065 13.2815Z" fill="#81FE88"/>
<path d="M44.7773 31.8435V34.6178C44.7773 35.737 43.9841 36.6135 42.3977 37.24C41.5393 37.5696 40.5723 37.7362 39.4929 37.7362C38.4136 37.7362 37.4466 37.5696 36.5882 37.24C35.0018 36.6135 34.2086 35.737 34.2086 34.6178V26.3418C34.2086 25.2227 35.0018 24.3462 36.5882 23.7196C37.4466 23.39 38.4136 23.2234 39.4929 23.2234C40.5723 23.2234 41.5393 23.39 42.3977 23.7196C43.9841 24.3462 44.7773 25.2227 44.7773 26.3418V27.9717L42.3578 29.1162H42.2311V26.7873C42.2311 26.3636 41.9667 26.0448 41.4343 25.8311C40.9055 25.6174 40.2572 25.5124 39.4929 25.5124C38.7287 25.5124 38.0804 25.6174 37.5516 25.8311C37.0228 26.0448 36.7548 26.3599 36.7548 26.7873V34.1723C36.7548 34.5961 37.0192 34.9148 37.5516 35.1285C38.0804 35.3422 38.7287 35.4472 39.4929 35.4472C40.2572 35.4472 40.9055 35.3422 41.4343 35.1285C41.9631 34.9148 42.2311 34.5997 42.2311 34.1723V32.988L44.6505 31.8435H44.7773Z" fill="#E1E1E1"/>
<path d="M48.468 34.6178V26.3418C48.468 25.2227 49.2611 24.3462 50.8475 23.7196C51.7059 23.39 52.6729 23.2234 53.7523 23.2234C54.8316 23.2234 55.7986 23.39 56.657 23.7196C58.2434 24.3462 59.0366 25.2227 59.0366 26.3418V34.6178C59.0366 35.737 58.2434 36.6135 56.657 37.24C55.7986 37.5696 54.8316 37.7362 53.7523 37.7362C52.6729 37.7362 51.7059 37.5696 50.8475 37.24C49.2611 36.6135 48.468 35.737 48.468 34.6178ZM51.0141 34.1723C51.0141 34.5961 51.2785 34.9148 51.8109 35.1285C52.3434 35.3422 52.9881 35.4472 53.7523 35.4472C54.5165 35.4472 55.1648 35.3422 55.6936 35.1285C56.2224 34.9148 56.4904 34.5997 56.4904 34.1723V26.7873C56.4904 26.3636 56.226 26.0448 55.6936 25.8311C55.1612 25.6174 54.5165 25.5124 53.7523 25.5124C52.9881 25.5124 52.3397 25.6174 51.8109 25.8311C51.2821 26.0448 51.0141 26.3599 51.0141 26.7873V34.1723Z" fill="#E1E1E1"/>
<path d="M62.7237 37.9934V26.3418C62.7237 25.2046 63.5168 24.3317 65.1032 23.7196C65.9616 23.39 66.9287 23.2234 68.008 23.2234C69.0873 23.2234 70.0543 23.39 70.9127 23.7196C72.4991 24.3317 73.2923 25.2046 73.2923 26.3418V36.8453L70.8729 36.9032H70.7461V26.7837C70.7461 26.3599 70.4817 26.0412 69.9493 25.8275C69.4205 25.6138 68.7722 25.5088 68.008 25.5088C67.2438 25.5088 66.5954 25.6138 66.0666 25.8275C65.5379 26.0412 65.2698 26.3563 65.2698 26.7837V36.8416L62.8504 37.9862H62.7237V37.9934Z" fill="#E1E1E1"/>
<path d="M76.983 37.9934V26.3418C76.983 25.2046 77.7762 24.3317 79.3625 23.7196C80.2209 23.39 81.188 23.2234 82.2673 23.2234C83.3466 23.2234 84.3137 23.39 85.172 23.7196C86.7584 24.3317 87.5516 25.2046 87.5516 26.3418V36.8453L85.1322 37.9898H85.0054V26.7837C85.0054 26.3599 84.741 26.0412 84.2086 25.8275C83.6798 25.6138 83.0315 25.5088 82.2673 25.5088C81.5031 25.5088 80.8548 25.6138 80.326 25.8275C79.7972 26.0412 79.5292 26.3563 79.5292 26.7837V36.8416L77.1097 37.9862H76.983V37.9934Z" fill="#E1E1E1"/>
<path d="M101.811 31.8435V34.6178C101.811 35.737 101.018 36.6135 99.4314 37.24C98.573 37.5696 97.6059 37.7362 96.5266 37.7362C95.4473 37.7362 94.4803 37.5696 93.6219 37.24C92.0355 36.6135 91.2423 35.737 91.2423 34.6178V26.3418C91.2423 25.2227 92.0355 24.3462 93.6219 23.7196C94.4803 23.39 95.4473 23.2234 96.5266 23.2234C97.6059 23.2234 98.573 23.39 99.4314 23.7196C101.018 24.3462 101.811 25.2227 101.811 26.3418V27.9717L93.7885 34.1397C93.7885 34.5743 94.0529 34.9003 94.5853 35.1176C95.1141 35.3349 95.7624 35.4436 96.5266 35.4436C97.2908 35.4436 97.9392 35.3386 98.4679 35.1249C98.9967 34.9112 99.2648 34.5961 99.2648 34.1687V32.9843L101.684 31.8398H101.811V31.8435ZM93.7885 31.4885L99.2648 27.2871V26.9575C99.2648 26.4758 99.0004 26.1173 98.4679 25.8782C97.9355 25.6392 97.2908 25.5197 96.5266 25.5197C95.7624 25.5197 95.1141 25.6247 94.5853 25.8384C94.0565 26.0521 93.7885 26.3672 93.7885 26.7946V31.4921V31.4885Z" fill="#E1E1E1"/>
<path d="M116.067 31.8435V34.6178C116.067 35.737 115.273 36.6135 113.687 37.24C112.829 37.5696 111.862 37.7362 110.782 37.7362C109.703 37.7362 108.736 37.5696 107.878 37.24C106.291 36.6135 105.498 35.737 105.498 34.6178V26.3418C105.498 25.2227 106.291 24.3462 107.878 23.7196C108.736 23.39 109.703 23.2234 110.782 23.2234C111.862 23.2234 112.829 23.39 113.687 23.7196C115.273 24.3462 116.067 25.2227 116.067 26.3418V27.9717L113.647 29.1162H113.52V26.7873C113.52 26.3636 113.256 26.0448 112.724 25.8311C112.191 25.6174 111.547 25.5124 110.782 25.5124C110.018 25.5124 109.37 25.6174 108.841 25.8311C108.312 26.0448 108.044 26.3599 108.044 26.7873V34.1723C108.044 34.5961 108.309 34.9148 108.841 35.1285C109.373 35.3422 110.018 35.4472 110.782 35.4472C111.547 35.4472 112.195 35.3422 112.724 35.1285C113.252 34.9148 113.52 34.5997 113.52 34.1723V32.988L115.94 31.8435H116.067Z" fill="#E1E1E1"/>
<path d="M121.438 37.9934V25.7949H118.164V25.6681L119.196 23.4769H121.438V18.8916L123.857 17.7471H123.984V23.4769H127.258V23.6036L126.226 25.7949H123.984V36.8488L121.565 37.9934H121.438Z" fill="#E1E1E1"/>
<path d="M44.7736 14.0964V16.8707C44.7736 17.9899 43.9804 18.8664 42.3941 19.493C41.5357 19.8226 40.5686 19.9892 39.4893 19.9892C38.41 19.9892 37.443 19.8226 36.5846 19.493C34.9982 18.8664 34.205 17.9899 34.205 16.8707V8.59475C34.205 7.47559 34.9982 6.5991 36.5846 5.97252C37.443 5.64292 38.41 5.47632 39.4893 5.47632C40.5686 5.47632 41.5357 5.64292 42.3941 5.97252C43.9804 6.5991 44.7736 7.47559 44.7736 8.59475V10.2246L42.3542 11.3691H42.2275V9.04024C42.2275 8.61648 41.9631 8.29776 41.4306 8.08407C40.9018 7.87038 40.2535 7.76534 39.4893 7.76534C38.7251 7.76534 38.0768 7.87038 37.548 8.08407C37.0192 8.29776 36.7512 8.61286 36.7512 9.04024V16.4253C36.7512 16.849 37.0156 17.1677 37.548 17.3814C38.0768 17.5951 38.7251 17.7002 39.4893 17.7002C40.2535 17.7002 40.9018 17.5951 41.4306 17.3814C41.9594 17.1677 42.2275 16.8526 42.2275 16.4253V15.2409L44.6469 14.0964H44.7736Z" fill="#888888"/>
<path d="M48.4643 16.8707V8.59475C48.4643 7.47559 49.2575 6.5991 50.8439 5.97252C51.7023 5.64292 52.6693 5.47632 53.7486 5.47632C54.828 5.47632 55.795 5.64292 56.6534 5.97252C58.2398 6.5991 59.033 7.47559 59.033 8.59475V16.8707C59.033 17.9899 58.2398 18.8664 56.6534 19.493C55.795 19.8226 54.828 19.9892 53.7486 19.9892C52.6693 19.9892 51.7023 19.8226 50.8439 19.493C49.2575 18.8664 48.4643 17.9899 48.4643 16.8707ZM51.0105 16.4253C51.0105 16.849 51.2749 17.1677 51.8073 17.3814C52.3397 17.5951 52.9844 17.7002 53.7486 17.7002C54.5129 17.7002 55.1612 17.5951 55.69 17.3814C56.2188 17.1677 56.4868 16.8526 56.4868 16.4253V9.04024C56.4868 8.61648 56.2224 8.29776 55.69 8.08407C55.1576 7.87038 54.5129 7.76534 53.7486 7.76534C52.9844 7.76534 52.3361 7.87038 51.8073 8.08407C51.2785 8.29776 51.0105 8.61286 51.0105 9.04024V16.4253Z" fill="#888888"/>
<path d="M62.72 16.8707V8.59471C62.72 7.45744 63.5132 6.58457 65.0996 5.97247C65.958 5.64288 66.925 5.47628 68.0043 5.47628C69.0148 5.47628 69.9276 5.62115 70.7425 5.9109V1.14451L73.1619 0H73.2887V16.8707C73.2887 18.008 72.4955 18.8808 70.9091 19.4929C70.0507 19.8225 69.0837 19.9891 68.0043 19.9891C66.925 19.9891 65.958 19.8225 65.0996 19.4929C63.5132 18.8664 62.72 17.9899 62.72 16.8707ZM65.2662 16.4252C65.2662 16.849 65.5306 17.1677 66.063 17.3814C66.5918 17.5951 67.2401 17.7001 68.0043 17.7001C68.7686 17.7001 69.4169 17.5951 69.9457 17.3814C70.4745 17.1677 70.7425 16.8526 70.7425 16.4252V9.0402C70.7425 8.61644 70.4781 8.29772 69.9457 8.08403C69.4169 7.87034 68.7686 7.7653 68.0043 7.7653C67.2401 7.7653 66.5918 7.87034 66.063 8.08403C65.5342 8.29772 65.2662 8.61282 65.2662 9.0402V16.4252Z" fill="#888888"/>
<path d="M88.1854 14.0964V16.8707C88.1854 17.9899 87.3923 18.8664 85.8059 19.493C84.9475 19.8226 83.9804 19.9892 82.9011 19.9892C81.8218 19.9892 80.8548 19.8226 79.9964 19.493C78.41 18.8664 77.6168 17.9899 77.6168 16.8707V8.59475C77.6168 7.47559 78.41 6.5991 79.9964 5.97252C80.8548 5.64292 81.8218 5.47632 82.9011 5.47632C83.9804 5.47632 84.9475 5.64292 85.8059 5.97252C87.3923 6.5991 88.1854 7.47559 88.1854 8.59475V10.2246L80.163 16.3927C80.163 16.8273 80.4274 17.1532 80.9598 17.3706C81.4886 17.5879 82.1369 17.6965 82.9011 17.6965C83.6653 17.6965 84.3137 17.5915 84.8424 17.3778C85.3712 17.1641 85.6393 16.849 85.6393 16.4216V15.2373L88.0587 14.0928H88.1854V14.0964ZM80.163 13.7414L85.6393 9.54006V9.21047C85.6393 8.72876 85.3749 8.3702 84.8424 8.13115C84.3137 7.89211 83.6653 7.77259 82.9011 7.77259C82.1369 7.77259 81.4886 7.87762 80.9598 8.09131C80.431 8.305 80.163 8.62011 80.163 9.04749V13.7451V13.7414Z" fill="#888888"/>
<path d="M76.9902 36.2659V36.5592C76.9902 38.2326 73.2706 38.0696 73.2706 36.5592V36.2659H70.7316V37.0047C70.7316 38.1384 71.5248 39.0113 73.1076 39.6197C74.4151 40.1232 75.8385 40.1268 77.1568 39.6197C78.7396 39.0113 79.5292 38.1384 79.5292 37.0047V36.2659H76.9902Z" fill="#81FE88"/>
</g>
<defs>
<clipPath id="clip0_155_3807">
<rect width="127.258" height="40" fill="white"/>
</clipPath>
</defs>
</svg>
