<svg width="48" height="48" viewBox="0 0 48 48" fill="none" xmlns="http://www.w3.org/2000/svg">
<rect width="48" height="48" rx="8" fill="#132E35"/>
<g clip-path="url(#clip0_155_4146)">
<path d="M25.9301 23.5875L22.1266 21.8088L22.1436 20.4104C22.1436 19.4625 21.3387 18.6609 19.7345 18.0055C18.6179 17.555 17.3935 17.3268 16.0671 17.3268C14.7407 17.3268 13.5163 17.555 12.3996 18.0055C10.7898 18.6784 9.99055 19.48 9.99055 20.4104V38.7186C9.99055 39.6664 10.7955 40.4681 12.3996 41.1234C13.5163 41.5739 14.735 41.8021 16.0671 41.8021C17.3991 41.8021 18.6179 41.5739 19.7345 41.1234C21.3387 40.4505 22.1436 39.6489 22.1436 38.7186V33.7802H22.342L26.1285 35.6292V38.7127C26.1285 41.2228 24.6207 43.1245 21.6051 44.4117C19.9159 45.1373 18.068 45.5 16.0671 45.5C14.0661 45.5 12.2126 45.1373 10.5291 44.4117C7.50779 43.1245 6 41.2228 6 38.7127V20.4045C6 17.8944 7.50779 15.9927 10.5234 14.7055C12.2126 13.98 14.0548 13.6172 16.0614 13.6172C18.068 13.6172 19.9159 13.98 21.5994 14.7055C24.615 15.9927 26.1228 17.8944 26.1228 20.4045V23.5875H25.9244H25.9301Z" fill="#81FE88"/>
<path d="M26.1285 35.6292C26.1285 35.6292 22.6934 34.0962 22.1266 32.3408L22.1436 34.4765L26.1285 35.6292Z" fill="#81FE88"/>
<path d="M22.0699 24.4125L25.8734 26.1913L25.8564 27.5897C25.8564 28.5376 26.6613 29.3392 28.2655 29.9945C29.3821 30.445 30.6065 30.6732 31.9329 30.6732C33.2593 30.6732 34.4837 30.445 35.6004 29.9945C37.2102 29.3216 38.0095 28.52 38.0095 27.5897V9.28732C38.0095 8.33943 37.2045 7.53783 35.6004 6.8825C34.4837 6.43196 33.265 6.20377 31.9329 6.20377C30.6009 6.20377 29.3821 6.43196 28.2655 6.8825C26.6613 7.55538 25.8564 8.35699 25.8564 9.28732V14.2257H25.658L21.8715 12.3767V9.29317C21.8715 6.78303 23.3793 4.88141 26.3949 3.59416C28.0841 2.86277 29.932 2.5 31.9329 2.5C33.9339 2.5 35.7874 2.86277 37.471 3.58831C40.4865 4.87556 41.9943 6.77718 41.9943 9.28732V27.5955C41.9943 30.1057 40.4865 32.0073 37.471 33.2945C35.7818 34.0201 33.9395 34.3828 31.9329 34.3828C29.9263 34.3828 28.0784 34.0201 26.3949 33.2945C23.3793 32.0073 21.8715 30.1057 21.8715 27.5955V24.4125H22.0699Z" fill="#81FE88"/>
<path d="M21.8715 12.3708C21.8715 12.3708 25.3066 13.9038 25.8734 15.6592L25.8564 13.5235L21.8715 12.3708Z" fill="#81FE88"/>
</g>
<defs>
<clipPath id="clip0_155_4146">
<rect width="36" height="43" fill="white" transform="translate(6 2.5)"/>
</clipPath>
</defs>
</svg>
