<svg width="407" height="486" viewBox="0 0 407 486" fill="none" xmlns="http://www.w3.org/2000/svg">
<g opacity="0.3" clip-path="url(#clip0_155_3786)">
<path d="M225.321 238.338L182.32 218.234L182.512 202.428C182.512 191.715 173.412 182.655 155.277 175.248C142.652 170.156 128.81 167.577 113.814 167.577C98.8181 167.577 84.9759 170.156 72.3513 175.248C54.1513 182.853 45.1154 191.913 45.1154 202.428V409.354C45.1154 420.067 54.2154 429.127 72.3513 436.534C84.9759 441.626 98.7541 444.205 113.814 444.205C128.874 444.205 142.652 441.626 155.277 436.534C173.412 428.928 182.512 419.868 182.512 409.354V353.539H184.755L227.564 374.436V409.287C227.564 437.658 210.517 459.151 176.424 473.699C157.327 481.9 136.436 486 113.814 486C91.1921 486 70.2365 481.9 51.2034 473.699C17.0464 459.151 0 437.658 0 409.287V202.362C0 173.992 17.0464 152.499 51.1394 137.95C70.2365 129.75 91.0639 125.65 113.75 125.65C136.436 125.65 157.327 129.75 176.36 137.95C210.453 152.499 227.5 173.992 227.5 202.362V238.338H225.257H225.321Z" fill="#132E35"/>
<path d="M227.564 374.436C227.564 374.436 188.729 357.11 182.32 337.27L182.512 361.408L227.564 374.436Z" fill="#132E35"/>
<path d="M181.679 247.662L224.68 267.766L224.488 283.572C224.488 294.285 233.588 303.345 251.723 310.752C264.348 315.844 278.19 318.423 293.186 318.423C308.182 318.423 322.024 315.844 334.649 310.752C352.849 303.147 361.885 294.087 361.885 283.572V76.7125C361.885 65.9992 352.785 56.9392 334.649 49.5325C322.024 44.4403 308.246 41.8612 293.186 41.8612C278.126 41.8612 264.348 44.4403 251.723 49.5325C233.588 57.1376 224.488 66.1976 224.488 76.7125V132.527H222.245L179.436 111.63V76.7786C179.436 48.4082 196.483 26.9155 230.576 12.3666C249.673 4.10015 270.564 0 293.186 0C315.808 0 336.763 4.10015 355.797 12.3004C389.889 26.8494 406.936 48.3421 406.936 76.7125V283.638C406.936 312.008 389.889 333.501 355.797 348.05C336.699 356.25 315.872 360.35 293.186 360.35C270.5 360.35 249.609 356.25 230.576 348.05C196.483 333.501 179.436 312.008 179.436 283.638V247.662H181.679Z" fill="#132E35"/>
<path d="M179.436 111.564C179.436 111.564 218.271 128.89 224.68 148.73L224.488 124.592L179.436 111.564Z" fill="#132E35"/>
</g>
<defs>
<clipPath id="clip0_155_3786">
<rect width="407" height="486" fill="white"/>
</clipPath>
</defs>
</svg>
